<?xml version="1.0" encoding="UTF-8"?>
<svg id="_レイヤー_2" data-name="レイヤー 2" xmlns="http://www.w3.org/2000/svg" viewBox="0 0 147.36 18.79">
  <g id="_レイヤー_1-2" data-name="レイヤー 1">
    <g>
      <polygon points="29.77 .04 51.12 .04 49.58 4.28 28.22 4.28 29.77 .04"/>
      <polygon points="129.83 .04 147.36 .04 145.59 4.91 128.06 4.91 129.83 .04"/>
      <polygon points="27.13 7.28 48.49 7.28 46.94 11.52 25.59 11.52 27.13 7.28"/>
      <polygon points="24.5 14.52 45.85 14.52 44.31 18.75 22.96 18.75 24.5 14.52"/>
      <polygon points="76.14 3.59 77.43 .04 70.23 .04 61.34 .04 53.9 .04 52.61 3.59 60.02 3.59 55.67 15.21 48.19 15.21 46.9 18.75 54.34 18.75 63.23 18.75 70.43 18.75 71.72 15.21 64.55 15.21 68.9 3.59 76.14 3.59"/>
      <polygon points="102.95 .04 92.06 .04 80.41 .04 79.12 3.59 90.73 3.59 85.06 18.75 95.95 18.75 101.62 3.59 101.65 3.59 102.95 .04"/>
      <polygon points="118.88 .04 113.21 15.21 104.52 15.21 103.23 18.75 111.88 18.75 119.77 18.75 126.77 .04 118.88 .04"/>
      <polygon points="112.15 5.15 107.03 5.15 105.17 .04 110.28 .04 112.15 5.15"/>
      <g>
        <path d="M6.26,3.63h1.38c.43,0,.7-.02,1-.06v1.06c-.31-.03-.61-.05-1.01-.05h-1.05c.55.98,1.35,1.77,2.33,2.32-.33.32-.45.5-.65.97-.39-.29-.68-.56-1.05-.98-.49-.56-.68-.84-1-1.43.03.32.04.65.04.92v1.18c0,.46.02.78.06,1.08h-1.07c.04-.31.06-.65.06-1.08v-1.11c0-.26,0-.6.04-.96-.61,1.06-1.26,1.78-2.21,2.42-.23-.44-.37-.65-.58-.89,1-.56,1.81-1.4,2.38-2.45h-.62c-.41,0-.71.02-1.02.06v-.38c-.17.23-.28.45-.4.78-.24-.38-.39-.68-.57-1.17.02.31.04.82.04,1.23v2.39c0,.5.02.85.06,1.15h-1.08c.04-.31.06-.66.06-1.15v-2.01c0-.37,0-.62.07-1.2-.27.92-.55,1.57-.98,2.2-.11-.44-.23-.72-.43-1.04.47-.59.95-1.7,1.25-2.82h-.37c-.28,0-.46,0-.63.05v-1.01c.16.04.33.05.63.05h.47v-.76c0-.49-.02-.73-.06-.96h1.07c-.03.24-.05.52-.05.96v.76h.28c.23,0,.35,0,.5-.04v.92c.37-.66.68-1.65.71-2.27l.95.24c-.04.1-.07.21-.14.5-.06.22-.07.28-.12.46h.76v-.64c0-.39-.02-.64-.06-.89h1.08c-.04.23-.06.5-.06.89v.64h1.1c.46,0,.73-.02,1-.06v1.03c-.27-.04-.58-.06-1-.06h-1.1v1.18ZM4.22,2.46c-.18.43-.24.57-.52,1.04q-.22-.23-.77-.61c.08-.11.11-.15.16-.22-.13-.02-.29-.03-.46-.03h-.23c.2.49.47.93.88,1.48v-.53c.3.04.57.06,1.02.06h.99v-1.18h-1.06Z"/>
        <path d="M17.74,1.62c.44,0,.67,0,.91-.06v1.05c-.26-.04-.63-.06-1.09-.06h-1.36c.08,1.62.29,2.74.65,3.59.18.41.36.73.56.92.09.09.19.17.21.17.11,0,.22-.45.35-1.42.39.28.55.37.89.52-.14.9-.3,1.42-.53,1.76-.18.25-.4.39-.64.39-.35,0-.83-.35-1.24-.91-.48-.66-.83-1.61-1.04-2.81-.13-.76-.15-.92-.22-2.22h-3.74c-.41,0-.75.02-1.09.06v-1.05c.29.04.64.06,1.09.06h3.7q-.03-.49-.03-.77c0-.23-.03-.56-.06-.73h1.13c-.03.23-.04.49-.04.76,0,.16,0,.43,0,.74h1.1c-.26-.42-.48-.68-.89-1.1l.81-.38c.4.4.51.52.92,1.06l-.76.43h.39ZM11.62,4.61c-.35,0-.68.02-.94.05v-.99c.23.03.55.05.96.05h2.26c.41,0,.71-.02.94-.05v.99c-.27-.03-.58-.05-.93-.05h-.64v2.12c.65-.13,1.02-.21,1.91-.43v.95c-1.58.38-3.05.68-4.31.87-.08.02-.19.04-.35.07l-.17-1.06c.39,0,.83-.06,1.88-.21v-2.31h-.62Z"/>
        <path d="M2.04,13.17c-.58.37-.84.51-1.49.8-.16-.37-.31-.64-.54-.95,1.01-.4,1.63-.75,2.34-1.3.62-.48,1.09-.97,1.48-1.57h1.11c.5.69.87,1.05,1.58,1.55.79.56,1.55.95,2.4,1.26-.26.4-.38.66-.51,1.05-.59-.25-.94-.44-1.6-.85v.73c-.24-.03-.49-.04-.84-.04h-3.12c-.27,0-.55,0-.8.04v-.72ZM1.52,15.58c-.48,0-.79.02-1.1.06v-1.08c.31.04.66.06,1.1.06h5.82c.46,0,.78-.02,1.09-.06v1.08c-.31-.04-.63-.06-1.09-.06h-3.21c-.29.68-.58,1.23-.97,1.81q1.65-.09,2.96-.23c-.3-.33-.46-.5-.98-1.04l.92-.41c1,1.01,1.4,1.48,2.16,2.49l-.9.59c-.31-.46-.4-.59-.56-.81-.78.1-1.34.17-1.68.21-.92.08-2.77.25-3.15.28-.52.04-.99.08-1.2.13l-.15-1.14c.25.02.41.03.54.03.07,0,.35,0,.82-.04.46-.69.75-1.23,1-1.87h-1.42ZM5.95,12.88c.15,0,.23,0,.41,0-.86-.59-1.39-1.07-1.95-1.81-.5.66-1.07,1.2-1.94,1.81.16,0,.21,0,.38,0h3.1Z"/>
        <path d="M12.61,17.79c0,.44,0,.67.05.95h-1.13c.05-.28.06-.53.06-.97v-2.34c-.36.34-.56.49-1.04.79-.11-.35-.28-.69-.48-.97.65-.37,1.1-.73,1.61-1.26.44-.46.71-.84,1.02-1.44h-1.52c-.34,0-.53,0-.78.04v-1.04c.23.03.43.04.74.04h.47v-.78c0-.24-.02-.5-.06-.71h1.13c-.04.22-.06.42-.06.73v.77h.38c.29,0,.42,0,.54-.03l.45.49c-.08.14-.14.23-.21.39-.31.67-.49.98-.93,1.6.44.5.87.83,1.48,1.19-.22.3-.36.56-.51.92-.49-.32-.8-.59-1.2-1.06v2.71ZM16.57,17.35h1.12c.47,0,.77-.02,1.06-.06v1.13c-.33-.05-.69-.06-1.06-.06h-3.19c-.37,0-.73.02-1.06.06v-1.13c.3.04.63.06,1.07.06h1.02v-3.65h-.7c-.32,0-.62.02-.91.05v-1.06c.27.04.51.05.91.05h.7v-1.64c0-.38-.02-.61-.07-.97h1.17c-.06.37-.07.57-.07.97v1.64h.99c.42,0,.65,0,.91-.05v1.06c-.3-.03-.59-.05-.91-.05h-.99v3.65Z"/>
      </g>
    </g>
  </g>
</svg>